<svg width="40" height="40" viewBox="0 0 40 40" fill="none" xmlns="http://www.w3.org/2000/svg">
<circle cx="20" cy="20" r="20" fill="white"/>
<g clip-path="url(#clip0_76_3978)">
<path d="M28 20C28 15.5817 24.4183 12 20 12C15.5817 12 12 15.5817 12 20C12 23.993 14.9255 27.3027 18.75 27.9028V22.3125H16.7188V20H18.75V18.2375C18.75 16.2325 19.9444 15.125 21.7717 15.125C22.6467 15.125 23.5625 15.2813 23.5625 15.2813V17.25H22.5538C21.56 17.25 21.25 17.8667 21.25 18.5V20H23.4688L23.1141 22.3125H21.25V27.9028C25.0745 27.3027 28 23.993 28 20Z" fill="#3E8BF3"/>
</g>
<defs>
<clipPath id="clip0_76_3978">
<rect width="16" height="16" fill="white" transform="translate(12 12)"/>
</clipPath>
</defs>
</svg>
