<svg width="40" height="40" viewBox="0 0 40 40" fill="none" xmlns="http://www.w3.org/2000/svg">
<circle cx="20" cy="20" r="20" fill="white"/>
<g clip-path="url(#clip0_76_3981)">
<path d="M17.0334 26.5C23.0697 26.5 26.3722 21.4978 26.3722 17.1612C26.3722 17.0206 26.3691 16.8769 26.3628 16.7362C27.0052 16.2716 27.5597 15.6962 28 15.0369C27.4017 15.3031 26.7664 15.4769 26.1159 15.5525C26.8009 15.1419 27.3137 14.497 27.5594 13.7372C26.915 14.119 26.2104 14.3884 25.4756 14.5337C24.9806 14.0077 24.326 13.6594 23.6131 13.5427C22.9003 13.426 22.1688 13.5474 21.5318 13.8881C20.8949 14.2288 20.3879 14.7698 20.0892 15.4275C19.7906 16.0853 19.717 16.8231 19.8797 17.5269C18.575 17.4614 17.2986 17.1225 16.1333 16.5321C14.968 15.9417 13.9398 15.113 13.1153 14.0997C12.6963 14.8222 12.568 15.6771 12.7567 16.4907C12.9453 17.3044 13.4367 18.0156 14.1309 18.48C13.6098 18.4634 13.1 18.3231 12.6438 18.0706V18.1112C12.6433 18.8694 12.9054 19.6044 13.3855 20.1912C13.8657 20.778 14.5342 21.1804 15.2775 21.33C14.7947 21.4621 14.288 21.4813 13.7966 21.3862C14.0063 22.0383 14.4144 22.6086 14.9638 23.0176C15.5133 23.4265 16.1767 23.6537 16.8616 23.6675C15.6989 24.5807 14.2628 25.0761 12.7844 25.0737C12.5222 25.0733 12.2603 25.0573 12 25.0256C13.5019 25.9892 15.249 26.5009 17.0334 26.5Z" fill="#3E8BF3"/>
</g>
<defs>
<clipPath id="clip0_76_3981">
<rect width="16" height="16" fill="white" transform="translate(12 12)"/>
</clipPath>
</defs>
</svg>
