<svg width="129" height="32" fill="none" xmlns="http://www.w3.org/2000/svg"><path fill-rule="evenodd" clip-rule="evenodd" d="M47.46 27.045h-8.067V4.955h8.066c7.118 0 12.02 4.891 12.02 11.045s-4.902 11.045-12.02 11.045ZM44.137 9.373v13.254h3.321c4.429 0 7.118-2.682 7.118-6.627 0-3.944-2.69-6.627-7.118-6.627h-3.321Z" fill="#000"/><path d="M79.261 27.045H62.654v-13.26H67.4v.006h9.49v4.102h-9.49v4.734h11.862v4.418ZM62.654 9.37V4.956h16.607v4.418h-4.867v-.002h-11.74Z" fill="#000"/><path fill-rule="evenodd" clip-rule="evenodd" d="M88.188 27.045h-4.745V4.955h10.28c5.378 0 8.858 3.471 8.858 7.732 0 4.26-3.48 7.731-8.857 7.731h-5.536v6.627Zm0-17.672V16h5.377c2.69 0 4.113-1.42 4.113-3.313 0-1.894-1.424-3.314-4.113-3.314h-5.377ZM116.822 27.676c-6.96 0-12.179-5.207-12.179-11.676 0-6.47 5.219-11.676 12.179-11.676C123.781 4.324 129 9.531 129 16c0 6.47-5.219 11.676-12.178 11.676Zm0-18.934c-4.113 0-7.118 2.998-7.118 7.258s3.005 7.258 7.118 7.258c4.112 0 7.117-2.998 7.117-7.258s-3.005-7.258-7.117-7.258Z" fill="#000"/><path d="M17.189 20.86a1.134 1.134 0 0 1 0 1.956l-15.51 9.031C.934 32.282 0 31.738 0 30.87V12.806c0-.87.933-1.413 1.68-.978l15.509 9.032Z" fill="#3E8BF3"/><path d="M10.518 9.184a1.134 1.134 0 0 0 0 1.957l15.51 9.031c.745.435 1.679-.109 1.679-.978V1.131c0-.87-.934-1.413-1.68-.978L10.518 9.184Z" fill="#6FD6BD"/></svg>